<?xml version="1.0"?>
<svg xmlns="http://www.w3.org/2000/svg" xmlns:xlink="http://www.w3.org/1999/xlink" xmlns:svgjs="http://svgjs.com/svgjs" version="1.1" width="512" height="512" x="0" y="0" viewBox="0 0 512 512" style="enable-background:new 0 0 512 512" xml:space="preserve"><g><path xmlns="http://www.w3.org/2000/svg" d="m181.875 192.371094h-76.21875c-4.203125 0-7.605469 3.402344-7.605469 7.601562v60.664063c0 4.199219 3.402344 7.605469 7.605469 7.605469h76.21875c4.199219 0 7.605469-3.40625 7.605469-7.605469v-60.664063c0-4.199218-3.40625-7.601562-7.605469-7.601562zm-7.605469 60.664062h-61.011719v-45.457031h61.011719zm0 0" fill="#ffffff" data-original="#000000" style=""/><path xmlns="http://www.w3.org/2000/svg" d="m504.394531 430.371094h-6.371093v-17.960938c0-20.085937-4.132813-39.523437-12.28125-57.777344-1.710938-3.835937-6.207032-5.558593-10.042969-3.84375-3.832031 1.710938-5.554688 6.207032-3.84375 10.042969 7.273437 16.289063 10.960937 33.640625 10.960937 51.578125v17.960938h-448.9375v-160.339844h33.71875c3.214844 16.679688 17.914063 29.324219 35.519532 29.324219h81.296874c17.601563 0 32.304688-12.644531 35.515626-29.324219h65.3125v26.125c0 2.707031 1.441406 5.210938 3.78125 6.570312 2.34375 1.363282 5.230468 1.375 7.585937.035157 19.046875-10.851563 40.789063-16.464844 62.796875-16.273438 38.019531.359375 73.332031 17.988281 96.882812 48.363281 2.574219 3.320313 7.351563 3.921876 10.667969 1.351563 3.320313-2.574219 3.921875-7.351563 1.351563-10.671875-26.417969-34.070312-66.0625-53.84375-108.761719-54.25-20.453125-.21875-40.632813 4.09375-59.097656 12.464844v-155.953125c11.050781-5.507813 18.664062-16.917969 18.664062-30.078125v-64.128906c0-18.519532-15.066406-33.585938-33.589843-33.585938h-251.9375c-18.519532 0-33.585938 15.066406-33.585938 33.585938v64.128906c0 13.160156 7.617188 24.574218 18.667969 30.078125v302.578125h-9.507813c-4.203125 0-7.605468 3.40625-7.605468 7.605468v62.222657c0 4.199219 3.402343 7.601562 7.605468 7.601562h47.667969c4.199219 0 7.601563-3.402343 7.601563-7.601562s-3.402344-7.605469-7.601563-7.605469h-40.066406v-47.015625h480.03125v47.015625h-279.738281c-1.671876-16.144531-15.355469-28.777344-31.933594-28.777344s-30.265625 12.632813-31.933594 28.777344h-65.941406c-4.199219 0-7.605469 3.40625-7.605469 7.605469s3.40625 7.601562 7.605469 7.601562h73.375c4.199218 0 7.601562-3.402343 7.601562-7.601562v-4.277344c0-9.316406 7.582032-16.898437 16.898438-16.898437s16.894531 7.582031 16.894531 16.898437v4.277344c0 4.199219 3.40625 7.601562 7.605469 7.601562h294.773437c4.203125 0 7.605469-3.402343 7.605469-7.601562v-62.222657c0-4.199218-3.402344-7.605468-7.605469-7.605468zm-219.152343-299.070313v59.28125h-65.3125c-3.210938-16.679687-17.914063-29.324219-35.515626-29.324219h-81.296874c-17.605469 0-32.304688 12.644532-35.519532 29.324219h-33.71875v-59.28125zm-251.363282 74.492188h33.058594v49.03125h-33.058594zm171.503906 57.382812c0 11.566407-9.40625 20.972657-20.972656 20.972657h-81.292968c-11.5625 0-20.972657-9.40625-20.972657-20.972657v-65.738281c0-11.5625 9.40625-20.96875 20.972657-20.96875h81.292968c11.5625 0 20.972656 9.40625 20.972656 20.96875zm15.207032-8.355469v-49.03125h64.652344v49.03125zm-205.382813-221.234374c0-10.132813 8.246094-18.378907 18.378907-18.378907h251.941406c10.132812 0 18.378906 8.246094 18.378906 18.378907v64.128906c0 10.128906-8.242188 18.371094-18.371094 18.375h-251.957031c-10.128906-.003906-18.371094-8.246094-18.371094-18.375zm0 0" fill="#ffffff" data-original="#000000" style=""/></g></svg>
