<?xml version="1.0"?>
<svg xmlns="http://www.w3.org/2000/svg" xmlns:xlink="http://www.w3.org/1999/xlink" xmlns:svgjs="http://svgjs.com/svgjs" version="1.1" width="512" height="512" x="0" y="0" viewBox="0 0 512 512" style="enable-background:new 0 0 512 512" xml:space="preserve" class=""><g><g xmlns="http://www.w3.org/2000/svg"><g><path d="m381.867 309.766c7.781-3.884 13.141-11.923 13.141-21.195 0-6.251-2.439-11.94-6.411-16.177 3.971-4.236 6.411-9.925 6.411-16.177 0-13.056-10.621-23.677-23.676-23.677h-8.677v-18.07c18.401-3.52 32.353-19.724 32.353-39.136s-13.952-35.616-32.353-39.136v-24.63c12.493-1.653 23.962-7.433 32.868-16.683 10.658-11.07 16.205-25.643 15.621-41.031-1.104-29.072-24.741-52.709-53.813-53.812-24.591-.946-46.702 14-54.962 37.164-2.416 6.773-8.834 11.324-15.97 11.324h-.138c-4.142 0-7.5 3.357-7.5 7.5s3.358 7.5 7.5 7.5h.138c13.462 0 25.558-8.554 30.099-21.285 6.049-16.963 22.254-27.882 40.265-27.215 21.282.809 38.585 18.111 39.393 39.393.428 11.278-3.633 21.953-11.437 30.06-7.809 8.11-18.307 12.577-29.562 12.577-4.142 0-7.5 3.357-7.5 7.5v31.639c-18.401 3.52-32.354 19.724-32.354 39.136s13.953 35.616 32.354 39.136v18.07h-8.677c-13.055 0-23.677 10.621-23.677 23.677 0 6.251 2.44 11.94 6.411 16.177-3.972 4.236-6.411 9.925-6.411 16.177 0 9.278 5.367 17.322 13.157 21.203-2.806 6.241-6.954 15.597-11.586 26.465-1.624 3.811.148 8.216 3.958 9.84 3.81 1.626 8.216-.147 9.84-3.959 5.624-13.194 10.524-24.131 13.128-29.872h22.723c14.458 31.736 45.84 105.265 45.84 127.546 0 31.544-25.663 57.207-57.207 57.207s-57.207-25.663-57.207-57.207c0-5.826 2.531-22.069 19.485-65.386 1.509-3.857-.394-8.208-4.251-9.718s-8.207.395-9.717 4.251c-13.806 35.273-20.517 58.45-20.517 70.853 0 39.815 32.392 72.207 72.207 72.207s72.207-32.392 72.207-72.207c-.002-26.924-33.519-103.519-45.496-130.029zm-51.566-134.432c0-13.704 11.149-24.854 24.854-24.854s24.853 11.149 24.853 24.854-11.149 24.854-24.853 24.854-24.854-11.149-24.854-24.854zm8.677 72.207h32.354c4.784 0 8.676 3.893 8.676 8.677s-3.892 8.677-8.676 8.677h-32.354c-4.784 0-8.677-3.893-8.677-8.677 0-4.785 3.893-8.677 8.677-8.677zm0 49.707c-4.784 0-8.677-3.893-8.677-8.677s3.893-8.677 8.677-8.677h32.354c4.784 0 8.676 3.893 8.676 8.677s-3.892 8.677-8.676 8.677z" fill="#ffffff" data-original="#000000" style=""/><path d="m200.888 288.571c0-6.251-2.44-11.94-6.411-16.177 3.972-4.236 6.411-9.925 6.411-16.177 0-13.056-10.622-23.677-23.677-23.677h-8.677v-18.07c18.401-3.52 32.354-19.724 32.354-39.136s-13.953-35.616-32.354-39.136v-24.63c12.494-1.653 23.962-7.433 32.868-16.683 10.658-11.07 16.205-25.643 15.621-41.031-1.104-29.072-24.741-52.709-53.813-53.812-24.628-.943-46.702 14.001-54.963 37.164-2.415 6.773-8.833 11.324-15.969 11.324h-.138c-4.142 0-7.5 3.357-7.5 7.5s3.358 7.5 7.5 7.5h.138c13.462 0 25.558-8.554 30.098-21.285 6.049-16.964 22.252-27.859 40.265-27.215 21.282.809 38.585 18.111 39.393 39.393.428 11.278-3.633 21.953-11.437 30.06-7.809 8.11-18.308 12.577-29.562 12.577-4.142 0-7.5 3.357-7.5 7.5v31.639c-18.401 3.52-32.353 19.724-32.353 39.136s13.952 35.616 32.353 39.136v18.07h-8.676c-13.055 0-23.677 10.621-23.677 23.677 0 6.251 2.44 11.94 6.411 16.177-3.972 4.236-6.411 9.925-6.411 16.177 0 9.278 5.367 17.322 13.156 21.203-2.806 6.242-6.954 15.597-11.586 26.465-1.624 3.811.148 8.216 3.958 9.84 3.811 1.626 8.216-.147 9.84-3.959 5.624-13.194 10.524-24.131 13.128-29.872h22.723c14.458 31.733 45.84 105.258 45.84 127.546 0 31.544-25.663 57.207-57.207 57.207s-57.207-25.663-57.207-57.207c0-5.826 2.531-22.067 19.485-65.386 1.509-3.857-.394-8.208-4.251-9.718-3.858-1.51-8.208.395-9.718 4.251-13.806 35.274-20.517 58.45-20.517 70.853 0 39.815 32.392 72.207 72.207 72.207s72.207-32.392 72.207-72.207c0-26.922-33.517-103.517-45.495-130.028 7.783-3.885 13.143-11.924 13.143-21.196zm-64.707-113.237c0-13.704 11.149-24.854 24.853-24.854s24.854 11.149 24.854 24.854-11.149 24.854-24.854 24.854-24.853-11.149-24.853-24.854zm8.677 72.207h32.353c4.784 0 8.677 3.893 8.677 8.677s-3.893 8.677-8.677 8.677h-32.353c-4.784 0-8.677-3.893-8.677-8.677 0-4.785 3.893-8.677 8.677-8.677zm0 49.707c-4.784 0-8.677-3.893-8.677-8.677s3.893-8.677 8.677-8.677h32.353c4.784 0 8.677 3.893 8.677 8.677s-3.893 8.677-8.677 8.677z" fill="#ffffff" data-original="#000000" style=""/></g></g></g></svg>
