<?xml version="1.0"?>
<svg xmlns="http://www.w3.org/2000/svg" xmlns:xlink="http://www.w3.org/1999/xlink" xmlns:svgjs="http://svgjs.com/svgjs" version="1.1" width="512" height="512" x="0" y="0" viewBox="0 0 511.999 511.999" style="enable-background:new 0 0 512 512" xml:space="preserve" class=""><g>
<g xmlns="http://www.w3.org/2000/svg">
	<g>
		<path d="M503.498,113.947c-5.198-2.498-11.366-1.795-15.868,1.807L351.333,224.79V95.333c0-8.284-6.716-15-15-15H15    c-8.284,0-15,6.716-15,15v321.334c0,8.284,6.716,15,15,15h321.333c8.284,0,15-6.716,15-15V287.208l136.296,109.039    c2.712,2.17,6.028,3.287,9.373,3.287c2.208,0,4.429-0.487,6.495-1.48c5.197-2.497,8.502-7.753,8.502-13.52V127.466    C512,121.701,508.695,116.445,503.498,113.947z M321.333,401.667H30V110.333h291.333V401.667z M482,353.325l-121.655-97.326    L482,158.675V353.325z" fill="#ffffff" data-original="#000000" style="" class=""/>
	</g>
</g>
<g xmlns="http://www.w3.org/2000/svg">
	<g>
		<path d="M175.667,176.732c-43.708,0-79.267,35.559-79.267,79.268c0,43.707,35.559,79.266,79.267,79.266    c43.708,0,79.266-35.559,79.266-79.266C254.933,212.292,219.374,176.732,175.667,176.732z M175.667,305.266    c-27.165,0-49.267-22.101-49.267-49.266c0-27.166,22.101-49.268,49.267-49.268c27.166,0,49.266,22.102,49.266,49.268    C224.933,283.165,202.832,305.266,175.667,305.266z" fill="#ffffff" data-original="#000000" style="" class=""/>
	</g>
</g>
<g xmlns="http://www.w3.org/2000/svg">
</g>
<g xmlns="http://www.w3.org/2000/svg">
</g>
<g xmlns="http://www.w3.org/2000/svg">
</g>
<g xmlns="http://www.w3.org/2000/svg">
</g>
<g xmlns="http://www.w3.org/2000/svg">
</g>
<g xmlns="http://www.w3.org/2000/svg">
</g>
<g xmlns="http://www.w3.org/2000/svg">
</g>
<g xmlns="http://www.w3.org/2000/svg">
</g>
<g xmlns="http://www.w3.org/2000/svg">
</g>
<g xmlns="http://www.w3.org/2000/svg">
</g>
<g xmlns="http://www.w3.org/2000/svg">
</g>
<g xmlns="http://www.w3.org/2000/svg">
</g>
<g xmlns="http://www.w3.org/2000/svg">
</g>
<g xmlns="http://www.w3.org/2000/svg">
</g>
<g xmlns="http://www.w3.org/2000/svg">
</g>
</g></svg>
