<?xml version="1.0"?>
<svg xmlns="http://www.w3.org/2000/svg" xmlns:xlink="http://www.w3.org/1999/xlink" xmlns:svgjs="http://svgjs.com/svgjs" version="1.1" width="512" height="512" x="0" y="0" viewBox="0 0 512 512" style="enable-background:new 0 0 512 512" xml:space="preserve" class=""><g><path xmlns="http://www.w3.org/2000/svg" d="m274.578125 496.984375h-135.097656v-314.988281c0-4.128906-2.484375-7.765625-6.324219-9.273438-3.84375-1.503906-8.140625-.515625-10.941406 2.515625l-47.320313 51.214844-58.195312-42.46875 22.917969-37.234375c2.171874-3.53125 1.070312-8.15625-2.460938-10.328125-3.53125-2.175781-8.15625-1.074219-10.328125 2.457031l-25.367187 41.214844c-2.703126 4.394531-1.5585942 10.21875 2.609374 13.261719l65.617188 47.882812c4.082031 2.976563 9.746094 2.425781 13.179688-1.289062l41.601562-45.023438v307.117188c0 5.492187 4.464844 9.957031 9.953125 9.957031h140.15625c4.144531 0 7.503906-3.359375 7.503906-7.507812 0-4.144532-3.359375-7.507813-7.503906-7.507813zm0 0" fill="#ffffff" data-original="#000000" style="" class=""/><path xmlns="http://www.w3.org/2000/svg" d="m505.652344 180.09375-63.335938-102.902344c-6.863281-11.152344-16.269531-20.199218-27.519531-26.542968-4.542969-2.558594-9.4375-4.4375-14.488281-5.726563l-46.820313-11.957031-17.261719-29.273438c-.058593-.101562-.128906-.195312-.191406-.292968-.042968-.0625-.082031-.125-.125-.183594-.199218-.289063-.417968-.558594-.652344-.816406-.046874-.046876-.09375-.09375-.140624-.140626-.238282-.242187-.488282-.472656-.757813-.679687-.019531-.015625-.039063-.035156-.0625-.050781-.28125-.214844-.582031-.402344-.890625-.574219-.066406-.035156-.132812-.074219-.199219-.105469-.308593-.160156-.628906-.304687-.957031-.417968-.0625-.023438-.121094-.039063-.183594-.058594-.144531-.046875-.289062-.097656-.4375-.136719-.171875-.042969-.347656-.074219-.523437-.105469-.046875-.007812-.09375-.023437-.140625-.027344-.363282-.0624995-.734375-.085937-1.101563-.0937495-.035156 0-.070312-.0078125-.105469-.0078125h-152.40625c-3.382812 0-6.347656 2.261719-7.242187 5.527344-.085937.3125-.128906.625-.175781.941406l-15.617188 26.484375-47.386718 11.949219c-5.113282 1.292968-10.066407 3.179687-14.65625 5.773437-11.230469 6.34375-20.621094 15.378907-27.476563 26.515625l-13.996094 22.738282c-2 3.25-1.449219 7.585937 1.527344 9.980468 3.597656 2.890625 8.785156 1.90625 11.128906-1.894531l14.125-22.957031c.375-.609375.761719-1.210938 1.15625-1.804688 8.246094-12.429687 21.097657-21.078125 35.558594-24.726562l40.949219-10.324219 30.289062 58.828125c1.667969 3.234375 4.679688 5.449219 8.265625 6.070312.671875.117188 1.339844.175782 2.003907.175782 2.890624 0 5.664062-1.085938 7.824218-3.109375l17.007813-15.898438v55.589844c0 8.015625 6.496093 14.515625 14.511719 14.515625h38.1875c8.015624 0 14.511718-6.5 14.511718-14.515625v-54.945313l16.320313 15.253907c2.164062 2.023437 4.933593 3.109375 7.824219 3.109375.808593 0 1.625-.085938 2.441406-.257813 3.476562-.742187 6.371094-3.152343 7.996094-6.3125l30.113281-58.492187 40.386719 10.316406c14.417968 3.679688 27.21875 12.320312 35.445312 24.71875.394531.597656.777344 1.199219 1.15625 1.808594l60.882812 98.921875-58.199218 42.472656-47.316406-51.214844c-2.886719-3.121093-7.351563-4.074219-11.28125-2.375-3.71875 1.613281-5.984376 5.441407-5.984376 9.492188v314.628906h-46.699218c-4.109375 0-7.695313 3.167969-7.816406 7.273437-.128907 4.253907 3.28125 7.738282 7.503906 7.738282h52.070312c5.496094 0 9.953125-4.457032 9.953125-9.953125v-307.117188l41.605469 45.023438c3.429688 3.710937 9.09375 4.265625 13.179688 1.285156l65.613281-47.878906c4.164062-3.042969 5.3125-8.867188 2.609375-13.261719zm-203.332032-165.082031-48.421874 28.636719-48.417969-28.636719zm-79.410156 56.582031-26.148437 24.441406-29-56.324218 12.746093-21.617188 60.140626 35.570312zm49.925782 77.765625h-37.183594v-69.125l18.246094-17.0625 18.9375 17.703125zm38.199218-53.324219-25.496094-23.835937-18.941406-18.617188 21.464844-12.695312 39.050781-23.09375 12.925781 21.917969zm0 0" fill="#ffffff" data-original="#000000" style="" class=""/><path xmlns="http://www.w3.org/2000/svg" d="m262.9375 94.6875c0 4.800781-3.894531 8.691406-8.695312 8.691406-4.800782 0-8.691407-3.890625-8.691407-8.691406s3.890625-8.695312 8.691407-8.695312c4.800781 0 8.695312 3.894531 8.695312 8.695312zm0 0" fill="#ffffff" data-original="#000000" style="" class=""/><path xmlns="http://www.w3.org/2000/svg" d="m262.9375 125.050781c0 4.804688-3.894531 8.695313-8.695312 8.695313-4.800782 0-8.691407-3.890625-8.691407-8.695313 0-4.800781 3.890625-8.691406 8.691407-8.691406 4.800781 0 8.695312 3.890625 8.695312 8.691406zm0 0" fill="#ffffff" data-original="#000000" style="" class=""/></g></svg>
