<?xml version="1.0"?>
<svg xmlns="http://www.w3.org/2000/svg" xmlns:xlink="http://www.w3.org/1999/xlink" xmlns:svgjs="http://svgjs.com/svgjs" version="1.1" width="512" height="512" x="0" y="0" viewBox="0 0 128 128" style="enable-background:new 0 0 512 512" xml:space="preserve" class=""><g><g xmlns="http://www.w3.org/2000/svg"><path d="M98.846,42.881a1.753,1.753,0,0,0,1.725-2.053,77.7,77.7,0,0,1-1.058-13.252,1.75,1.75,0,0,0-1.75-1.748h0a1.749,1.749,0,0,0-1.749,1.751,81.162,81.162,0,0,0,1.111,13.854A1.752,1.752,0,0,0,98.846,42.881Z" fill="#ffffff" data-original="#000000" style="" class=""/><path d="M121.5,79.378a1.751,1.751,0,0,0,1.75-1.75v-14a1.751,1.751,0,0,0-1.75-1.75H117V57.75a1.75,1.75,0,0,0-1.055-1.606c-11.074-4.8-11.666-28.686-9.437-42.618a1.749,1.749,0,0,0-1.232-1.954L82.467,4.822a1.751,1.751,0,0,0-2.236,1.484C80.146,7.063,77.98,24.85,64,24.85S47.854,7.063,47.769,6.306a1.751,1.751,0,0,0-2.236-1.484l-22.809,6.75a1.749,1.749,0,0,0-1.232,1.954c2.229,13.932,1.637,37.822-9.437,42.618A1.75,1.75,0,0,0,11,57.75v4.128H6.5a1.751,1.751,0,0,0-1.75,1.75v14a1.751,1.751,0,0,0,1.75,1.75H11v7H6.5a1.751,1.751,0,0,0-1.75,1.75v14a1.751,1.751,0,0,0,1.75,1.75H11V109.5c0,7.582,5.585,13.75,12.45,13.75h81.1c6.865,0,12.45-6.168,12.45-13.75v-5.622h4.5a1.751,1.751,0,0,0,1.75-1.75v-14a1.751,1.751,0,0,0-1.75-1.75H117v-7Zm-1.75-3.5H99.25v-10.5h20.5ZM8.25,65.378h20.5v10.5H8.25Zm0,24.5h20.5v10.5H8.25Zm111.5,10.5H99.25v-10.5h20.5Zm-6.25-14h-16a1.751,1.751,0,0,0-1.75,1.75v14a1.751,1.751,0,0,0,1.75,1.75h16V109.5c0,5.652-4.015,10.25-8.95,10.25H23.45c-4.935,0-8.95-4.6-8.95-10.25v-5.622h16a1.751,1.751,0,0,0,1.75-1.75v-14a1.751,1.751,0,0,0-1.75-1.75h-16v-7h16a1.751,1.751,0,0,0,1.75-1.75v-14a1.751,1.751,0,0,0-1.75-1.75h-16V58.846C26.937,52.174,27.045,27.938,25.176,14.5L44.6,8.748c1.466,7.755,6.872,19.6,19.4,19.6S81.933,16.5,83.4,8.748L102.824,14.5c-1.869,13.441-1.761,37.677,10.676,44.349v3.032h-16a1.751,1.751,0,0,0-1.75,1.75v14a1.751,1.751,0,0,0,1.75,1.75h16Z" fill="#ffffff" data-original="#000000" style="" class=""/><path d="M82.875,41.336H45.125a1.751,1.751,0,0,0-1.75,1.75V77.628a1.751,1.751,0,0,0,1.75,1.75h37.75a1.751,1.751,0,0,0,1.75-1.75V43.086A1.751,1.751,0,0,0,82.875,41.336Zm-1.75,34.542H46.875V44.836h34.25Z" fill="#ffffff" data-original="#000000" style="" class=""/><path d="M82.875,86.378H45.125a1.75,1.75,0,1,0,0,3.5h37.75a1.75,1.75,0,0,0,0-3.5Z" fill="#ffffff" data-original="#000000" style="" class=""/><path d="M82.875,94.218H45.125a1.75,1.75,0,0,0,0,3.5h37.75a1.75,1.75,0,0,0,0-3.5Z" fill="#ffffff" data-original="#000000" style="" class=""/><path d="M82.875,102.058H45.125a1.75,1.75,0,1,0,0,3.5h37.75a1.75,1.75,0,0,0,0-3.5Z" fill="#ffffff" data-original="#000000" style="" class=""/></g></g></svg>
