<?xml version="1.0"?>
<svg xmlns="http://www.w3.org/2000/svg" xmlns:xlink="http://www.w3.org/1999/xlink" xmlns:svgjs="http://svgjs.com/svgjs" version="1.1" width="512" height="512" x="0" y="0" viewBox="0 0 74 74" style="enable-background:new 0 0 512 512" xml:space="preserve" class=""><g><path xmlns="http://www.w3.org/2000/svg" d="m37.113 57.014h-.119a26.5 26.5 0 0 1 -9.965-2.154c-.469-.166-3.114-1.2-6.929-4.75-1.52.074-14.46.4-17.788-9.238a5.235 5.235 0 0 1 1.58-5.872 4.128 4.128 0 0 1 3.229-.86c2.224.337 4.57 2.321 7.175 6.063 7.443 10.694 13.358 12.76 13.418 12.78a1.1 1.1 0 0 1 .112.044 24.818 24.818 0 0 0 9.181 1.989 24.4 24.4 0 0 0 9.16-1.985 1.092 1.092 0 0 1 .127-.051c.054-.018 5.969-2.084 13.412-12.778 2.6-3.742 4.951-5.725 7.175-6.062a4.133 4.133 0 0 1 3.229.86 5.235 5.235 0 0 1 1.579 5.875c-3.329 9.633-16.274 9.31-17.789 9.235-3.8 3.533-6.44 4.577-6.924 4.748a25.293 25.293 0 0 1 -9.863 2.156zm30.419-20.927a2.366 2.366 0 0 0 -.353.027c-1.119.17-3.04 1.215-5.834 5.228a58.671 58.671 0 0 1 -5.417 6.747c3.762-.189 11.629-1.382 13.872-7.869a3.24 3.24 0 0 0 -.917-3.645 2.141 2.141 0 0 0 -1.351-.488zm-61.064 0a2.141 2.141 0 0 0 -1.348.488 3.24 3.24 0 0 0 -.92 3.645c2.24 6.487 10.106 7.678 13.868 7.87a58.671 58.671 0 0 1 -5.417-6.747c-2.791-4.013-4.712-5.058-5.831-5.229a2.366 2.366 0 0 0 -.352-.027z" fill="#ffffff" data-original="#000000" style="" class=""/><path xmlns="http://www.w3.org/2000/svg" d="m35.671 46.565a36.675 36.675 0 0 1 -17.451-4.61c-1.01-.523-2.044-1.095-3.163-1.748a60.412 60.412 0 0 0 -6.415-3.293 1.012 1.012 0 0 1 -.288-.187l.661-.716v-1.03l.386.155.026-.062a62.547 62.547 0 0 1 6.635 3.4c1.093.638 2.1 1.194 3.078 1.7 8.433 4.374 18.6 7.369 35.741-.269 1.028-.455 2.075-.946 3.113-1.462 2.483-1.228 4.4-2.152 5.815-2.818l.854 1.809c-1.4.663-3.312 1.582-5.78 2.8-1.063.528-2.138 1.033-3.19 1.5-7.881 3.516-14.436 4.831-20.022 4.831z" fill="#ffffff" data-original="#000000" style="" class=""/><path xmlns="http://www.w3.org/2000/svg" d="m19.67 41.207-1.98-.279a101.754 101.754 0 0 1 2.9-13.682 24.041 24.041 0 0 1 3.728-8.156 5.177 5.177 0 0 1 6.335-1.59 4.707 4.707 0 0 1 1.042.742 7.417 7.417 0 0 0 1.25 1.007c3.536 2.1 6.56 1.774 9.52-1.035a4.333 4.333 0 0 1 2.962-1.228h.016a5.338 5.338 0 0 1 2.376.56 5.255 5.255 0 0 1 1.877 1.549 22.5 22.5 0 0 1 3.1 6.441c.191.537.385 1.082.593 1.633a61.185 61.185 0 0 1 2.806 12.888l.09.625-1.98.284-.089-.625a59.7 59.7 0 0 0 -2.7-12.469c-.211-.562-.409-1.117-.6-1.665a21.028 21.028 0 0 0 -2.816-5.907 3.272 3.272 0 0 0 -1.171-.966 3.342 3.342 0 0 0 -1.489-.353h-.01a2.375 2.375 0 0 0 -1.592.679c-3.605 3.424-7.616 3.862-11.918 1.3a9.326 9.326 0 0 1 -1.6-1.27 2.654 2.654 0 0 0 -.594-.424 3.132 3.132 0 0 0 -3.826 1.034 22.2 22.2 0 0 0 -3.393 7.491 99.645 99.645 0 0 0 -2.837 13.416z" fill="#ffffff" data-original="#000000" style="" class=""/><path xmlns="http://www.w3.org/2000/svg" d="m36.353 40.991a41.8 41.8 0 0 1 -17.377-3.641l.828-1.82c9.4 4.271 18.8 3.82 25.027 2.687l.357 1.968a49.59 49.59 0 0 1 -8.835.806z" fill="#ffffff" data-original="#000000" style="" class=""/><path xmlns="http://www.w3.org/2000/svg" d="m49.146 39.316-.514-1.933a39.584 39.584 0 0 0 5.515-1.855l.825 1.822a40.675 40.675 0 0 1 -5.826 1.966z" fill="#ffffff" data-original="#000000" style="" class=""/></g></svg>
