<?xml version="1.0"?>
<svg xmlns="http://www.w3.org/2000/svg" xmlns:xlink="http://www.w3.org/1999/xlink" xmlns:svgjs="http://svgjs.com/svgjs" version="1.1" width="512" height="512" x="0" y="0" viewBox="0 0 512 512" style="enable-background:new 0 0 512 512" xml:space="preserve" class=""><g><path xmlns="http://www.w3.org/2000/svg" d="m256 512c-68.378906 0-132.667969-26.628906-181.019531-74.980469-48.351563-48.351562-74.980469-112.640625-74.980469-181.019531s26.628906-132.667969 74.980469-181.019531c48.351562-48.351563 112.640625-74.980469 181.019531-74.980469s132.667969 26.628906 181.019531 74.980469c48.351563 48.351562 74.980469 112.640625 74.980469 181.019531s-26.628906 132.667969-74.980469 181.019531c-48.351562 48.351563-112.640625 74.980469-181.019531 74.980469zm0-482c-60.367188 0-117.121094 23.507812-159.804688 66.195312-42.6875 42.683594-66.195312 99.4375-66.195312 159.804688s23.507812 117.121094 66.195312 159.804688c42.683594 42.6875 99.4375 66.195312 159.804688 66.195312s117.121094-23.507812 159.804688-66.195312c42.6875-42.683594 66.195312-99.4375 66.195312-159.804688s-23.507812-117.121094-66.195312-159.804688c-42.683594-42.6875-99.4375-66.195312-159.804688-66.195312zm0 0" fill="#ffffff" data-original="#000000" style="" class=""/><path xmlns="http://www.w3.org/2000/svg" d="m255.964844 379.308594c-36.738282 0-70.96875-19.792969-89.328125-51.652344-4.136719-7.179688-1.671875-16.351562 5.507812-20.484375 7.175781-4.140625 16.347657-1.671875 20.484375 5.503906 13.019532 22.597657 37.289063 36.632813 63.335938 36.632813 25.996094 0 50.238281-13.996094 63.273437-36.527344 4.148438-7.171875 13.324219-9.621094 20.496094-5.472656 7.171875 4.148437 9.621094 13.324218 5.472656 20.496094-18.378906 31.765624-52.574219 51.503906-89.242187 51.503906zm0 0" fill="#ffffff" data-original="#000000" style="" class=""/><path xmlns="http://www.w3.org/2000/svg" d="m178.667969 250.019531c-22.578125 0-40.949219-18.367187-40.949219-40.949219 0-22.578124 18.371094-40.949218 40.949219-40.949218 22.582031 0 40.949219 18.371094 40.949219 40.949218 0 22.578126-18.367188 40.949219-40.949219 40.949219zm0-51.898437c-6.035157 0-10.949219 4.910156-10.949219 10.949218 0 6.039063 4.914062 10.949219 10.949219 10.949219 6.039062 0 10.949219-4.910156 10.949219-10.949219 0-6.039062-4.910157-10.949218-10.949219-10.949218zm0 0" fill="#ffffff" data-original="#000000" style="" class=""/><path xmlns="http://www.w3.org/2000/svg" d="m332.222656 250.019531c-22.578125 0-40.949218-18.367187-40.949218-40.949219 0-22.578124 18.371093-40.949218 40.949218-40.949218s40.949219 18.371094 40.949219 40.949218c0 22.578126-18.367187 40.949219-40.949219 40.949219zm0-51.898437c-6.039062 0-10.949218 4.910156-10.949218 10.949218 0 6.039063 4.914062 10.949219 10.949218 10.949219 6.039063 0 10.949219-4.910156 10.949219-10.949219 0-6.039062-4.910156-10.949218-10.949219-10.949218zm0 0" fill="#ffffff" data-original="#000000" style="" class=""/></g></svg>
