<?xml version="1.0"?>
<svg xmlns="http://www.w3.org/2000/svg" xmlns:xlink="http://www.w3.org/1999/xlink" xmlns:svgjs="http://svgjs.com/svgjs" version="1.1" width="512" height="512" x="0" y="0" viewBox="0 0 74 74" style="enable-background:new 0 0 512 512" xml:space="preserve"><g><path xmlns="http://www.w3.org/2000/svg" d="M43.415,72a8.783,8.783,0,0,1-4.347-1.22,1,1,0,0,1-.509-.871V50.69H35.44V69.91a1,1,0,0,1-.509.871,8.35,8.35,0,0,1-8.692,0,1,1,0,0,1-.509-.871V30.76L9.8,17.54a4.5,4.5,0,1,1,5.785-6.9L27.907,21.1a18.177,18.177,0,0,0,3.61,2.478c4.562,2.262,8.89,1.824,13.233-1.343L58.413,10.637a4.453,4.453,0,0,1,3.335-1.046,4.5,4.5,0,0,1,3.1,1.672,4.568,4.568,0,0,1,.98,2.807,4.475,4.475,0,0,1-1.636,3.473L48.27,30.76V69.91a1,1,0,0,1-.509.871A8.777,8.777,0,0,1,43.415,72Zm-2.855-2.7a6.24,6.24,0,0,0,5.71,0V30.29a1,1,0,0,1,.361-.77L62.921,16a2.485,2.485,0,0,0,.909-1.931,2.493,2.493,0,0,0-2.271-2.488,2.479,2.479,0,0,0-1.853.581L45.986,23.8c-4.989,3.643-10.14,4.153-15.36,1.563a20.163,20.163,0,0,1-4.013-2.743L14.293,12.162a2.57,2.57,0,0,0-3.584.355A2.5,2.5,0,0,0,11.079,16l16.29,13.52a1,1,0,0,1,.361.77V69.305a6.24,6.24,0,0,0,5.71,0V49.69a1,1,0,0,1,1-1H39.56a1,1,0,0,1,1,1Zm6.71.6h0Z" fill="#ffffff" data-original="#000000" style=""/><path xmlns="http://www.w3.org/2000/svg" d="M37,21.831a9.916,9.916,0,1,1,9.916-9.916A9.927,9.927,0,0,1,37,21.831ZM37,4a7.916,7.916,0,1,0,7.916,7.916A7.924,7.924,0,0,0,37,4Z" fill="#ffffff" data-original="#000000" style=""/></g></svg>
