<?xml version="1.0"?>
<svg xmlns="http://www.w3.org/2000/svg" xmlns:xlink="http://www.w3.org/1999/xlink" xmlns:svgjs="http://svgjs.com/svgjs" version="1.1" width="512" height="512" x="0" y="0" viewBox="0 0 512 512" style="enable-background:new 0 0 512 512" xml:space="preserve" class=""><g>
<g xmlns="http://www.w3.org/2000/svg">
	<g>
		<path d="M431.225,216.975c-4.987-8.169-13.619-13.42-23.167-14.092c-9.603-0.787-19.008,3.04-25.333,10.308l-38.441,44.735    l-21.283,12.78c3.431-60.323,1.467-112.114,1.257-117.253V76.8c-0.019-18.844-15.29-34.115-34.133-34.133    c-6.01,0.034-11.902,1.673-17.067,4.746V38.4c0-21.208-17.192-38.4-38.4-38.4c-21.208,0-38.4,17.192-38.4,38.4v10.767    c-11.772-7.894-26.938-8.654-39.44-1.977c-12.503,6.677-20.306,19.703-20.293,33.876v0.48c-5.165-3.074-11.057-4.712-17.067-4.746    c-18.844,0.019-34.115,15.29-34.133,34.133v62.108c-5.261,3.025-8.513,8.623-8.533,14.692L76.8,230.85    c0.339,6.357,8.153,148.063,38.839,201.174c-3.019,3.151-4.707,7.345-4.714,11.709v51.2c0.012,9.421,7.646,17.054,17.067,17.067    h153.6c9.421-0.012,17.054-7.646,17.067-17.067v-51.2c-0.011-4.746-2.009-9.271-5.508-12.477    c3.807-8.304,7.035-16.862,9.659-25.613c15.099-5.848,44.303-18.424,74.341-68.469c3.065-4.771,6.531-9.274,10.358-13.458    c1.308-1.525,2.617-3.042,3.892-4.575c4.257-5.112,13.309-18.956,16.08-23.222c0.586-0.629,1.074-1.344,1.445-2.119l16.717-34.967    c0.625-1.308,1.292-2.633,1.975-3.983C432.733,244.733,439.733,230.883,431.225,216.975z M273.058,76.8    c0.012-9.421,7.646-17.054,17.067-17.067c9.421,0.012,17.054,7.646,17.067,17.067v68.267h-34.133V76.8z M213.325,38.4    c0-11.782,9.551-21.333,21.333-21.333c11.782,0,21.333,9.551,21.333,21.333v106.667h-42.667V38.4z M153.591,81.067    c0-11.782,9.551-21.333,21.333-21.333c11.782,0,21.333,9.551,21.333,21.333V153.6h-42.667V81.067z M102.391,110.933    c0-9.426,7.641-17.067,17.067-17.067s17.067,7.641,17.067,17.067v59.733h-34.133V110.933z M191.693,494.933h-63.702v-51.2h63.616    C201.319,459.41,201.352,479.225,191.693,494.933z M162.125,426.667v-51.2c0-23.564,19.103-42.667,42.667-42.667    s42.667,19.103,42.667,42.667v51.2H162.125z M210.977,494.933c6.823-16.407,6.71-34.878-0.313-51.2h70.928l0.017,51.2H210.977z     M276.388,426.667h-11.864v-51.2c0-32.99-26.744-59.733-59.733-59.733s-59.733,26.744-59.733,59.733v51.2h-12.726    C107.379,389.439,96.114,272.99,93.858,230.4v-42.667h42.667v25.6c0,4.713,3.82,8.533,8.533,8.533s8.533-3.821,8.533-8.533    v-42.667h42.667V204.8c0,4.713,3.82,8.533,8.533,8.533s8.533-3.821,8.533-8.533v-42.667h42.667V204.8    c0,4.713,3.82,8.533,8.533,8.533s8.533-3.821,8.533-8.533v-42.667h34.392C308.428,199.956,310.309,358.673,276.388,426.667z     M378.275,308.225c-1.208,1.467-2.45,2.908-3.7,4.35c-4.477,4.915-8.515,10.213-12.067,15.833    c-20.381,33.952-39.93,48.614-54.025,56.002c6.645-30.624,11.033-61.694,13.129-92.96l29.496-17.708    c13.8,3.84,26.883,9.903,38.733,17.95C385.9,297.658,380.733,305.283,378.275,308.225z M412.391,247.15L412.391,247.15    c-0.742,1.467-1.475,2.908-2.151,4.317l-12.058,25.247c-10.339-6.96-21.563-12.505-33.374-16.486l30.866-35.919    c2.747-3.155,6.842-4.798,11.008-4.417c4.099,0.264,7.818,2.493,9.983,5.983C419.975,231.283,417.258,237.517,412.391,247.15z" fill="#ffffff" data-original="#000000" style="" class=""/>
	</g>
</g>
<g xmlns="http://www.w3.org/2000/svg">
</g>
<g xmlns="http://www.w3.org/2000/svg">
</g>
<g xmlns="http://www.w3.org/2000/svg">
</g>
<g xmlns="http://www.w3.org/2000/svg">
</g>
<g xmlns="http://www.w3.org/2000/svg">
</g>
<g xmlns="http://www.w3.org/2000/svg">
</g>
<g xmlns="http://www.w3.org/2000/svg">
</g>
<g xmlns="http://www.w3.org/2000/svg">
</g>
<g xmlns="http://www.w3.org/2000/svg">
</g>
<g xmlns="http://www.w3.org/2000/svg">
</g>
<g xmlns="http://www.w3.org/2000/svg">
</g>
<g xmlns="http://www.w3.org/2000/svg">
</g>
<g xmlns="http://www.w3.org/2000/svg">
</g>
<g xmlns="http://www.w3.org/2000/svg">
</g>
<g xmlns="http://www.w3.org/2000/svg">
</g>
</g></svg>
