<?xml version="1.0"?>
<svg xmlns="http://www.w3.org/2000/svg" xmlns:xlink="http://www.w3.org/1999/xlink" xmlns:svgjs="http://svgjs.com/svgjs" version="1.1" width="512" height="512" x="0" y="0" viewBox="0 0 510.573 510.573" style="enable-background:new 0 0 512 512" xml:space="preserve" class=""><g><g xmlns="http://www.w3.org/2000/svg"><path d="m484.471 301.554-38.394 38.394v-175.638l60.102-60.103c5.858-5.857 5.858-15.355 0-21.213-5.857-5.857-15.355-5.857-21.213 0l-59.092 59.093-68.497-10.829c-67.885-13.535-136.715-13.535-204.6 0l-68.497 10.829-58.673-58.674c-5.857-5.857-15.355-5.857-21.213 0s-5.858 15.355 0 21.213l59.684 59.684v175.638l-38.394-38.394c-5.857-5.857-15.355-5.857-21.213 0s-5.858 15.355 0 21.213l64 64c1.423 1.423 2.963 2.412 4.608 3.131.941.41 51.847 19.58 52.067 19.654 87.06 29.474 170.338 30.308 259.861 0 .101-.034 51.744-19.402 53.257-20.233 2.779-1.514-2.256 3.123 67.419-66.552 5.858-5.857 5.858-15.355 0-21.213-5.857-5.857-15.355-5.857-21.212 0zm-109.322 79.663c-81.91 27.68-158.232 27.68-240.143 0l-40.929-15.432v-194.872c71.11-11.242 63.822-10.083 64.28-10.175 64.18-12.836 129.26-12.836 193.439 0 .458.092-6.83-1.067 64.28 10.175v194.873z" fill="#ffffff" data-original="#000000" style=""/><path d="m367.077 223.161h-224c-8.284 0-15-6.716-15-15s6.716-15 15-15h224c8.284 0 15 6.716 15 15s-6.715 15-15 15z" fill="#ffffff" data-original="#000000" style=""/><path d="m367.077 287.161h-224c-8.284 0-15-6.716-15-15s6.716-15 15-15h224c8.284 0 15 6.716 15 15s-6.715 15-15 15z" fill="#ffffff" data-original="#000000" style=""/><path d="m367.077 351.161h-224c-8.284 0-15-6.716-15-15s6.716-15 15-15h224c8.284 0 15 6.716 15 15s-6.715 15-15 15z" fill="#ffffff" data-original="#000000" style=""/></g></g></svg>
