<?xml version="1.0"?>
<svg xmlns="http://www.w3.org/2000/svg" xmlns:xlink="http://www.w3.org/1999/xlink" xmlns:svgjs="http://svgjs.com/svgjs" version="1.1" width="512" height="512" x="0" y="0" viewBox="0 0 511 511.99999" style="enable-background:new 0 0 512 512" xml:space="preserve" class=""><g><path xmlns="http://www.w3.org/2000/svg" d="m464.765625 398.027344c20.222656-31.511719 30.667969-95.570313 30.667969-159.09375 0-71.730469-13.378906-135.773438-33.691406-163.386719.285156-2.515625-.574219-5.023437-2.34375-6.828125l-12.085938-12.082031c-9.996094-10-26.203125-10-36.203125-.003907 0 0 0 .003907-.003906.003907l-27.96875 27.980469c-21.496094-17.839844-47.695313-29.066407-75.4375-32.324219v-43.757813c0-4.714844-3.820313-8.535156-8.53125-8.535156h-102.402344c-4.710937 0-8.53125 3.820312-8.53125 8.535156v43.773438c-27.738281 3.238281-53.929687 14.484375-75.386719 32.359375l-28.03125-28.03125c-9.996094-9.996094-26.199218-9.996094-36.199218 0l-12.082032 12.082031c-1.769531 1.804688-2.632812 4.3125-2.34375 6.828125-20.3125 27.613281-33.691406 91.65625-33.691406 163.386719 0 63.523437 10.445312 127.582031 30.667969 159.09375-13.597657 7.4375-22.078125 21.675781-22.132813 37.171875v68.265625c0 4.714844 3.820313 8.535156 8.53125 8.535156h460.800782c4.714843 0 8.535156-3.820312 8.535156-8.535156v-68.265625c-.0625-15.496094-8.539063-29.734375-22.136719-37.171875zm-17.136719-5.117188c-1.144531-.09375-2.234375-.34375-3.414062-.34375h-8.515625v-3.949218c16.042969-32.425782 25.601562-88.074219 25.601562-149.648438 0-54.699219-7.773437-106.027344-20.90625-139.144531l10.238281-10.242188c14.175782 22.90625 27.734376 75.5625 27.734376 149.351563 0 79.238281-15.464844 134.203125-30.722657 153.941406zm-20.460937-279.851562c12.199219 40.816406 17.957031 83.285156 17.066406 125.875.175781 31.3125-2.679687 62.566406-8.535156 93.328125v-135.996094c-.007813-25.394531-6.730469-50.339844-19.480469-72.300781zm-3.945313-44.375c3.332032-3.332032 8.734375-3.332032 12.066406 0l6.050782 6.050781-34.535156 34.492187c-.980469-1.289062-2.097657-2.398437-3.113282-3.652343-1.195312-1.484375-2.457031-2.910157-3.710937-4.351563-1.453125-1.65625-2.792969-3.472656-4.269531-5.042968zm-132.589844-17.484375h-8.53125v-34.132813h8.53125zm-25.601562-34.132813v34.132813h-34.132812v-34.132813zm-59.730469 0h8.53125v34.132813h-8.53125zm-145.066406 179.199219v135.996094c-5.855469-30.761719-8.710937-62.015625-8.535156-93.328125-.878907-42.59375 4.894531-85.0625 17.109375-125.875l10.828125 10.828125c-12.710938 22.003906-19.402344 46.96875-19.402344 72.378906zm33.78125-82.132813-.1875-.1875 1.542969 1.160157zm-33.332031-45.429687c3.335937-3.332031 8.734375-3.332031 12.066406 0l27.496094 27.492187c-3.941406 4.136719-7.644532 8.496094-11.09375 13.046876l-34.515625-34.492188zm-43.117188 170.230469c0-73.789063 13.558594-126.445313 27.757813-149.332032l10.242187 10.238282c-13.160156 33.066406-20.933594 84.394531-20.933594 139.09375 0 61.578125 9.558594 117.207031 25.601563 149.648437v3.953125h-8.535156c-1.160157 0-2.253907.246094-3.414063.339844-15.257812-19.738281-30.71875-74.699219-30.71875-153.941406zm8.535156 196.265625c.015626-10.617188 6.582032-20.121094 16.511719-23.890625 4.886719 4.277344 11.125 6.695312 17.621094 6.824218v76.800782h-34.132813zm51.199219-238.933594c-.023437-24.503906 7.007813-48.5 20.257813-69.117187 1.519531-2.390626 3.105468-4.695313 4.710937-6.929688 4.734375-6.359375 10.046875-12.265625 15.871094-17.648438v-.050781c23.640625-22.085937 54.808594-34.335937 87.160156-34.253906h85.332031c33.539063-.003906 65.730469 13.203125 89.601563 36.761719.621094.605468 1.234375 1.246094 1.851563 1.878906 2.371093 2.421875 4.667968 4.914062 6.824218 7.515625l.855469 1.042969c18.679687 22.78125 28.882813 51.339844 28.867187 80.800781v298.667969h-341.332031zm392.53125 298.667969h-34.132812v-76.800782c6.496093-.132812 12.734375-2.546874 17.621093-6.824218 9.929688 3.769531 16.496094 13.273437 16.511719 23.890625zm0 0" fill="#ffffff" data-original="#000000" style=""/><path xmlns="http://www.w3.org/2000/svg" d="m393.03125 375.46875h-290.132812c-4.710938 0-8.53125 3.820312-8.53125 8.53125v85.332031c0 4.714844 3.820312 8.535157 8.53125 8.535157h290.132812c4.714844 0 8.535156-3.820313 8.535156-8.535157v-85.332031c0-4.710938-3.820312-8.53125-8.535156-8.53125zm-8.53125 85.332031h-273.066406v-68.265625h273.066406zm0 0" fill="#ffffff" data-original="#000000" style=""/><path xmlns="http://www.w3.org/2000/svg" d="m239.433594 315.734375h17.066406c70.660156-.082031 127.917969-57.339844 128-128v-51.203125c0-4.710938-3.820312-8.53125-8.535156-8.53125h-256c-4.710938 0-8.53125 3.820312-8.53125 8.53125v51.203125c.078125 70.660156 57.339844 127.917969 128 128zm-110.933594-170.667969h238.933594v42.667969c-.070313 61.238281-49.695313 110.863281-110.933594 110.933594h-17.066406c-61.238282-.070313-110.863282-49.695313-110.933594-110.933594zm0 0" fill="#ffffff" data-original="#000000" style=""/></g></svg>
