<?xml version="1.0"?>
<svg xmlns="http://www.w3.org/2000/svg" xmlns:xlink="http://www.w3.org/1999/xlink" xmlns:svgjs="http://svgjs.com/svgjs" version="1.1" width="512" height="512" x="0" y="0" viewBox="0 0 512 512.00152" style="enable-background:new 0 0 512 512" xml:space="preserve" class=""><g><path xmlns="http://www.w3.org/2000/svg" d="m510.660156 232.574219c-.46875-5.085938-3.394531-9.648438-7.828125-12.207031-4.457031-2.574219-9.90625-2.820313-14.570312-.667969l-.113281.050781c-26.710938 12.300781-58.191407 7.054688-79.453126-12.914062 29.875-18.960938 56.464844-39.054688 75.128907-56.820313 23.058593-21.953125 30.839843-36.894531 24.484375-47.023437-6.351563-10.128907-23.191406-9.628907-52.992188 1.578124-19.691406 7.40625-43.089844 18.898438-67.382812 33.011719 5.039062-21.300781 19.496094-39.261719 39.910156-48.664062.011719-.003907.085938-.039063.097656-.042969 3.601563-1.65625 6.132813-4.972656 6.769532-8.871094.632812-3.859375-.691407-7.765625-3.542969-10.449218-34.828125-32.746094-78.105469-55.058594-125.148438-64.523438-47.980469-9.65625-97.445312-5.359375-143.042969 12.421875-29.445312 11.484375-56.109374 28.015625-79.242187 49.140625-3.039063 2.777344-3.253906 7.496094-.476563 10.539062 2.777344 3.039063 7.496094 3.253907 10.535157.476563 21.773437-19.878906 46.871093-35.445313 74.601562-46.257813 42.933594-16.742187 89.503907-20.785156 134.679688-11.699218 42.820312 8.617187 82.320312 28.527344 114.527343 57.683594-26.609374 13.925781-43.949218 40.234374-46.273437 70.21875-.988281.609374-1.972656 1.214843-2.957031 1.835937-31.128906 19.523437-58.898438 40.394531-78.199219 58.765625-12.914063 12.296875-21.035156 22.390625-24.566406 30.671875-12.433594-9.007813-29.609375-10.132813-43.394531-1.484375-15.878907 9.960938-34.523438 53.824219-38.101563 62.515625-.917969 2.230469-.699219 4.761719.578125 6.800781 1.28125 2.042969 3.46875 3.339844 5.875 3.484375 3.378906.203125 11.726562.632813 21.765625.632813 17.8125 0 40.949219-1.351563 51.101563-7.722656 14.074218-8.828126 20.527343-25.273438 17.375-40.667969.4375.015625.878906.023437 1.332031.023437 8.855469 0 20.917969-2.929687 36.542969-8.808594 22.273437-8.371093 49.277343-21.96875 76.960937-38.683593 25.640625 26.394531 65.296875 33.785156 98.75 18.378906l.117187-.050781c.292969-.136719.585938-.125.871094.039062.386719.226563.417969.535156.425782.652344 7.175781 78.101562-24.183594 155.003906-83.890626 205.71875-3.140624 2.664062-3.523437 7.371094-.855468 10.511719 1.476562 1.738281 3.574218 2.632812 5.6875 2.632812 1.707031 0 3.421875-.585937 4.824218-1.773437 63.40625-53.855469 96.707032-135.519532 89.089844-218.453125zm-134.363281-70.546875c28.429687-17.832032 56.917969-32.722656 80.222656-41.929688 25.003907-9.882812 35.988281-10.011718 38.9375-9.042968-.414062 3.078124-5.308593 12.910156-25.089843 31.121093-18.429688 16.972657-44.238282 36.136719-72.667969 53.972657-15.402344 9.660156-30.816407 18.449218-45.421875 25.945312l-19.074219-30.492188c13.097656-9.878906 27.703125-19.917968 43.09375-29.574218zm-120.792969 128.394531c-7.351562 4.609375-32.753906 5.796875-53.335937 5.277344 8.496093-18.753907 20.617187-41.105469 27.96875-45.714844 11.148437-6.992187 25.910156-3.613281 32.902343 7.535156 6.992188 11.148438 3.613282 25.910157-7.535156 32.902344zm61.976563-52.34375c-25.007813 9.882813-35.992188 10.011719-38.941407 9.039063.414063-3.078126 5.308594-12.90625 25.089844-31.121094 5.328125-4.902344 11.289063-10 17.738282-15.1875l17.46875 27.929687c-7.464844 3.539063-14.632813 6.683594-21.355469 9.339844zm0 0" fill="#ffa600b6" data-original="#000000" style="" class=""/><path xmlns="http://www.w3.org/2000/svg" d="m390.027344 456.183594c-10.5625 7.066406-21.816406 13.367187-33.460938 18.726562-55.914062 25.753906-118.84375 29.191406-177.195312 9.679688-58.09375-19.421875-106.136719-59.660156-135.285156-113.300782-23.582032-43.398437-33.148438-92.246093-27.660157-141.265624 5.320313-47.53125 24.25-92.035157 54.734375-128.695313 2.632813-3.167969 2.199219-7.871094-.964844-10.503906-3.167968-2.632813-7.871093-2.199219-10.503906.964843-32.355468 38.910157-52.441406 86.136719-58.089844 136.574219-5.828124 52.070313 4.328126 103.953125 29.378907 150.050781 30.953125 56.96875 81.976562 99.703126 143.660156 120.324219 26.503906 8.863281 53.882813 13.265625 81.199219 13.261719 36.554687 0 72.984375-7.886719 106.96875-23.539062 12.351562-5.6875 24.300781-12.375 35.515625-19.878907 3.421875-2.289062 4.339843-6.921875 2.050781-10.347656-2.289062-3.421875-6.921875-4.339844-10.347656-2.050781zm0 0" fill="#ffa600b6" data-original="#000000" style="" class=""/><path xmlns="http://www.w3.org/2000/svg" d="m203.59375 122.53125c5.65625 3.417969 12.003906 5.171875 18.449219 5.171875 2.875 0 5.773437-.347656 8.640625-1.054687 9.28125-2.289063 17.121094-8.058594 22.066406-16.246094 4.945312-8.183594 6.40625-17.804688 4.117188-27.089844-2.289063-9.28125-8.058594-17.121094-16.246094-22.066406-8.183594-4.945313-17.804688-6.40625-27.089844-4.117188-9.28125 2.289063-17.121094 8.058594-22.066406 16.246094-4.945313 8.183594-6.40625 17.804688-4.117188 27.089844 2.289063 9.28125 8.058594 17.121094 16.246094 22.066406zm.640625-41.441406c2.882813-4.773438 7.457031-8.140625 12.871094-9.476563 1.671875-.410156 3.359375-.613281 5.039062-.613281 3.761719 0 7.460938 1.023438 10.761719 3.015625 4.777344 2.886719 8.140625 7.457031 9.476562 12.871094 1.335938 5.417969.484376 11.027343-2.402343 15.804687-2.882813 4.773438-7.457031 8.136719-12.871094 9.472656-5.417969 1.335938-11.027344.484376-15.800781-2.402343-4.773438-2.882813-8.140625-7.457031-9.476563-12.871094-1.335937-5.417969-.484375-11.027344 2.402344-15.800781zm0 0" fill="#ffa600b6" data-original="#000000" style="" class=""/><path xmlns="http://www.w3.org/2000/svg" d="m93.101562 196.574219c5.65625 3.417969 12.003907 5.171875 18.449219 5.171875 2.875 0 5.773438-.347656 8.640625-1.054688 9.28125-2.289062 17.121094-8.058594 22.066406-16.242187 4.945313-8.1875 6.40625-17.808594 4.117188-27.089844-2.292969-9.285156-8.058594-17.121094-16.246094-22.070313-16.894531-10.207031-38.945312-4.765624-49.15625 12.128907-4.945312 8.183593-6.40625 17.804687-4.117187 27.089843 2.289062 9.285157 8.058593 17.121094 16.246093 22.066407zm.640626-41.441407c3.917968-6.488281 10.828124-10.078124 17.90625-10.078124 3.675781 0 7.398437.96875 10.765624 3.003906 4.777344 2.886718 8.140626 7.457031 9.476563 12.871094 1.335937 5.417968.484375 11.027343-2.402344 15.804687-2.886719 4.773437-7.457031 8.136719-12.871093 9.472656-5.417969 1.335938-11.027344.484375-15.800782-2.402343-4.773437-2.882813-8.140625-7.453126-9.476562-12.871094-1.335938-5.414063-.484375-11.027344 2.402344-15.800782zm0 0" fill="#ffa600b6" data-original="#000000" style="" class=""/><path xmlns="http://www.w3.org/2000/svg" d="m104.355469 265.777344c-8.183594-4.945313-17.804688-6.40625-27.089844-4.117188-9.28125 2.289063-17.121094 8.058594-22.066406 16.246094-4.945313 8.183594-6.40625 17.804688-4.117188 27.089844 2.289063 9.28125 8.058594 17.121094 16.246094 22.066406 5.65625 3.417969 12.003906 5.171875 18.449219 5.171875 2.875 0 5.773437-.347656 8.636718-1.054687 9.285157-2.289063 17.121094-8.058594 22.066407-16.246094 4.949219-8.183594 6.410156-17.804688 4.117187-27.089844-2.289062-9.285156-8.058594-17.121094-16.242187-22.066406zm-.640625 41.441406c-2.882813 4.773438-7.457032 8.140625-12.871094 9.476562-5.417969 1.335938-11.027344.480469-15.800781-2.402343-4.777344-2.886719-8.140625-7.457031-9.476563-12.871094-1.335937-5.417969-.484375-11.027344 2.402344-15.804687 2.886719-4.773438 7.457031-8.136719 12.871094-9.472657 1.671875-.414062 3.363281-.617187 5.039062-.617187 3.761719 0 7.464844 1.023437 10.765625 3.019531 4.773438 2.882813 8.136719 7.457031 9.472657 12.871094 1.335937 5.414062.484374 11.027343-2.402344 15.800781zm0 0" fill="#ffa600b6" data-original="#000000" style="" class=""/><path xmlns="http://www.w3.org/2000/svg" d="m129.242188 388.398438c-10.207032 16.894531-4.769532 38.945312 12.128906 49.152343 5.65625 3.421875 12.003906 5.175781 18.449218 5.175781 2.875 0 5.773438-.351562 8.640626-1.058593 9.28125-2.289063 17.121093-8.058594 22.066406-16.242188 4.945312-8.183593 6.40625-17.804687 4.117187-27.089843-2.292969-9.285157-8.058593-17.121094-16.246093-22.066407-8.183594-4.945312-17.804688-6.40625-27.089844-4.117187-9.285156 2.289062-17.121094 8.058594-22.066406 16.246094zm12.769531 7.710937c2.882812-4.773437 7.457031-8.136719 12.871093-9.472656 1.671876-.414063 3.363282-.617188 5.039063-.617188 3.761719 0 7.460937 1.023438 10.761719 3.019531 4.777344 2.886719 8.140625 7.457032 9.476562 12.871094 1.335938 5.414063.484375 11.027344-2.402344 15.800782-2.886718 4.773437-7.457031 8.140624-12.871093 9.476562-5.417969 1.335938-11.027344.480469-15.800781-2.402344-9.855469-5.957031-13.03125-18.820312-7.074219-28.675781zm0 0" fill="#ffa600b6" data-original="#000000" style="" class=""/><path xmlns="http://www.w3.org/2000/svg" d="m271.855469 463.324219c5.660156 3.421875 12.003906 5.175781 18.449219 5.175781 2.878906 0 5.777343-.351562 8.640624-1.058594 9.285157-2.289062 17.121094-8.058594 22.066407-16.242187 4.945312-8.183594 6.40625-17.804688 4.117187-27.089844-2.289062-9.285156-8.058594-17.121094-16.242187-22.066406-8.1875-4.945313-17.808594-6.410157-27.089844-4.117188-19.167969 4.726563-30.914063 24.167969-26.1875 43.332031 2.292969 9.285157 8.0625 17.125 16.246094 22.066407zm13.515625-50.914063c1.671875-.414062 3.347656-.613281 5-.613281 9.378906 0 17.929687 6.378906 20.273437 15.886719 1.335938 5.417968.484375 11.027344-2.402343 15.800781-2.882813 4.773437-7.453126 8.140625-12.871094 9.476563-11.179688 2.757812-22.519532-4.09375-25.277344-15.273438s4.09375-22.519531 15.277344-25.277344zm0 0" fill="#ffa600b6" data-original="#000000" style="" class=""/><path xmlns="http://www.w3.org/2000/svg" d="m382.347656 389.28125c5.777344 3.492188 12.15625 5.152344 18.457032 5.152344 12.132812 0 23.980468-6.15625 30.699218-17.277344 4.945313-8.183594 6.410156-17.804688 4.117188-27.089844-2.289063-9.285156-8.058594-17.121094-16.242188-22.066406-8.1875-4.945312-17.804687-6.40625-27.089844-4.117188-9.285156 2.289063-17.121093 8.058594-22.066406 16.242188-4.945312 8.183594-6.410156 17.804688-4.121094 27.089844 2.292969 9.285156 8.0625 17.121094 16.246094 22.066406zm.644532-41.441406c2.882812-4.773438 7.453124-8.136719 12.871093-9.472656 1.667969-.414063 3.359375-.617188 5.035157-.617188 3.761718 0 7.464843 1.023438 10.765624 3.019531 4.773438 2.882813 8.140626 7.453125 9.476563 12.871094 1.335937 5.414063.480469 11.027344-2.402344 15.800781-5.957031 9.855469-18.816406 13.03125-28.675781 7.074219-4.773438-2.886719-8.140625-7.457031-9.472656-12.871094-1.339844-5.417969-.484375-11.027343 2.402344-15.804687zm0 0" fill="#ffa600b6" data-original="#000000" style="" class=""/></g></svg>
