<?xml version="1.0"?>
<svg xmlns="http://www.w3.org/2000/svg" xmlns:xlink="http://www.w3.org/1999/xlink" xmlns:svgjs="http://svgjs.com/svgjs" version="1.1" width="512" height="512" x="0" y="0" viewBox="0 0 62 52" style="enable-background:new 0 0 512 512" xml:space="preserve" class=""><g><path xmlns="http://www.w3.org/2000/svg" id="Shape" d="m53 6.91v-3.91c0-1.65685425-1.3431458-3-3-3h-38c-1.6568542 0-3 1.34314575-3 3v3.9l-8 37.58c-.25748995 1.2858109.34998573 2.5898587 1.5 3.22 2.15 1.22 8.41 4.09 20.16 4.3 1.2075213.0162371 2.307057-.6931408 2.79-1.8l5.55-12.69 5.55 12.69c.482943 1.1068592 1.5824787 1.8162371 2.79 1.8 11.75-.21 18-3.08 20.16-4.3 1.1500143-.6301413 1.7574899-1.9341891 1.5-3.22zm-42-3.91c0-.55228475.4477153-1 1-1h38c.5522847 0 1 .44771525 1 1v3h-11.2c-.4157209-.36855611-.8604969-.70297414-1.33-1-2.72-1.7-6.34-.77-7.47-.42-1.13-.35-4.75-1.28-7.47.42-.4695031.29702586-.9142791.63144389-1.33 1h-11.2zm16.24 7.93c-2.46 1.54-5 1.38-5.57.53-.2289336-.6708378-.1328434-1.4099932.26-2 .6264201-1.14471563 1.5440206-2.10371166 2.66-2.78 1.48-.93 3.59-.79 5.29-.35-.29 1.4-1.05 3.61-2.64 4.61zm4.89-4.6c1.36-.35 3.69-.63 5.28.36 1.1159794.67628834 2.0335799 1.63528437 2.66 2.78.3928434.5900068.4889336 1.3291622.26 2-.54.85-3.11 1-5.57-.53-1.69-1.06-2.38-3.38-2.63-4.6zm-29.13 38.56 7.81-36.89h3.56l-8 39.26c-.98747792-.3459952-1.94695938-.767231-2.87-1.26-.39863426-.2142359-.6037021-.6694865-.5-1.11zm36.31 5.11c-.3988865.001389-.7604469-.2344113-.92-.6l-5.56-12.7c-.31974-.725144-1.0374929-1.1930923-1.83-1.1930923s-1.51026.4679483-1.83 1.1930923l-5.56 12.7c-.1595531.3655887-.5211135.601389-.92.6-4.8841121-.0081157-9.7424243-.7084129-14.43-2.08l8.15-39.92h4.08c-2.12 3.43-.53 6.1 3 6.1 1.7670707-.0428988 3.484853-.591201 4.95-1.58-.9492366 1.8678046-2.3183804 3.4902401-4 4.74-.2203997.1483028-.3727332.3782067-.4233875.6389823-.0506542.2607756.0045341.5309895.1533875.7510177.3051825.456275.9211173.5812473 1.38.28 2.4779084-1.8234689 4.3715755-4.3286688 5.45-7.21 1.0767376 2.8849871 2.9705466 5.3938496 5.45 7.22.4607382.2926417 1.0710241.1617756 1.371266-.2940463.300242-.4558219.1795143-1.0681941-.271266-1.3759537-1.6686468-1.2553418-3.0353495-2.868051-4-4.72 1.459964.9737906 3.1656614 1.5146215 4.92 1.56 3.55 0 5.13-2.67 3-6.1h4.08l8.15 39.91c-4.6747108 1.3678517-9.5192918 2.0681108-14.39 2.08zm19.19-4c-.9150791.5089513-1.8678783.9469046-2.85 1.31l-8.02-39.31h3.56l7.81 36.88c.1087323.443716-.0970668.9047061-.5 1.12z" fill="#ffffff" data-original="#000000" style="" class=""/></g></svg>
