<?xml version="1.0"?>
<svg xmlns="http://www.w3.org/2000/svg" xmlns:xlink="http://www.w3.org/1999/xlink" xmlns:svgjs="http://svgjs.com/svgjs" version="1.1" width="512" height="512" x="0" y="0" viewBox="0 0 512 512" style="enable-background:new 0 0 512 512" xml:space="preserve" class=""><g><g xmlns="http://www.w3.org/2000/svg" id="outline"><path d="M490.777,340.849l-31.843-25.64A91.437,91.437,0,0,0,472,268V254c0-.878-.025-1.751-.066-2.62l21.723-21.723A8,8,0,0,0,496,224V200a8,8,0,0,0-2.343-5.657A89.957,89.957,0,0,0,430.06,168H319.03a205.267,205.267,0,0,0-31.11,2.385l-3.779.588a188.715,188.715,0,0,1-59.1-.287c-5.341-.877-10.869-1.556-16.462-2.021-5.561-.441-11.13-.665-16.553-.665H81.94a89.351,89.351,0,0,0-63.6,26.343A8,8,0,0,0,16,200v24a8,8,0,0,0,2.343,5.657L40.066,251.38c-.041.869-.066,1.742-.066,2.62v14a91.437,91.437,0,0,0,13.066,47.209L21.231,340.842a14,14,0,0,0-2.6,19.085l.974,1.356a39,39,0,0,0,57.03,6.831l18.481-15.84A91.983,91.983,0,0,0,224,268v-2.111l15.9-31.8a18.01,18.01,0,0,1,32.209,0l15.9,31.8V268a91.983,91.983,0,0,0,128.883,84.274l18.481,15.84a39,39,0,0,0,57.034-6.837l.959-1.336a14,14,0,0,0-2.58-19.092ZM66.224,355.966a23,23,0,0,1-33.494-3.841l29.738-23.944A92.766,92.766,0,0,0,80.2,343.989ZM208,268a76,76,0,0,1-152,0V254a38.043,38.043,0,0,1,38-38h94a20.023,20.023,0,0,1,20,20Zm48-59.86a33.831,33.831,0,0,0-30.416,18.793l-1.958,3.917A36.051,36.051,0,0,0,188,200H94a54.082,54.082,0,0,0-49.729,32.957L32,220.687V203.412A73.408,73.408,0,0,1,81.94,184H192.03c5,0,10.146.207,15.257.613,5.141.427,10.243,1.054,15.166,1.861a204.829,204.829,0,0,0,64.138.311l3.776-.588A189.086,189.086,0,0,1,319.03,184H430.06A73.963,73.963,0,0,1,480,203.413v17.274l-12.271,12.27A54.082,54.082,0,0,0,418,200H324a36.051,36.051,0,0,0-35.626,30.85l-1.96-3.921A33.83,33.83,0,0,0,256,208.14ZM304,268V236a20.023,20.023,0,0,1,20-20h94a38.043,38.043,0,0,1,38,38v14a76,76,0,0,1-152,0Zm156.712,93.5a22.975,22.975,0,0,1-14.936-5.534L431.8,343.989a92.8,92.8,0,0,0,17.729-15.808l29.738,23.944A23.082,23.082,0,0,1,460.712,361.5Z" fill="#ffffff" data-original="#000000" style=""/></g></g></svg>
