<?xml version="1.0"?>
<svg xmlns="http://www.w3.org/2000/svg" xmlns:xlink="http://www.w3.org/1999/xlink" xmlns:svgjs="http://svgjs.com/svgjs" version="1.1" width="512" height="512" x="0" y="0" viewBox="0 0 512.001 512.001" style="enable-background:new 0 0 512 512" xml:space="preserve" class=""><g>
<g xmlns="http://www.w3.org/2000/svg">
	<g>
		<path d="M375.807,35.32L344.135,2.472c-0.017-0.018-0.037-0.033-0.055-0.052c-0.104-0.107-0.216-0.205-0.326-0.305    c-0.087-0.08-0.172-0.164-0.263-0.239c-0.105-0.087-0.216-0.166-0.326-0.248c-0.102-0.078-0.203-0.158-0.308-0.231    s-0.219-0.135-0.328-0.203c-0.113-0.069-0.224-0.143-0.341-0.207c-0.128-0.07-0.263-0.129-0.396-0.193    c-0.101-0.049-0.201-0.102-0.304-0.147c-0.154-0.066-0.314-0.12-0.472-0.176c-0.086-0.03-0.171-0.067-0.259-0.095    c-0.155-0.049-0.315-0.086-0.474-0.126c-0.095-0.024-0.19-0.053-0.286-0.073c-0.141-0.03-0.286-0.049-0.429-0.071    c-0.12-0.018-0.238-0.041-0.358-0.055c-0.125-0.014-0.252-0.018-0.378-0.026c-0.143-0.01-0.286-0.02-0.429-0.022    c-0.03,0-0.06-0.004-0.091-0.004H173.688c-0.023,0-0.045,0.005-0.068,0.005c-0.352,0.003-0.705,0.031-1.054,0.08    c-0.081,0.011-0.16,0.026-0.239,0.04c-0.327,0.056-0.65,0.127-0.968,0.223c-0.028,0.009-0.057,0.014-0.085,0.023    c-0.341,0.107-0.673,0.241-1,0.393c-0.065,0.03-0.127,0.061-0.19,0.093c-0.312,0.155-0.617,0.326-0.91,0.523    c-0.008,0.005-0.016,0.01-0.025,0.015c-0.292,0.198-0.569,0.423-0.839,0.663c-0.065,0.058-0.127,0.119-0.191,0.179    c-0.084,0.08-0.171,0.152-0.252,0.236l-31.674,32.849c-2.372,2.461-2.942,6.147-1.42,9.21l46.924,94.433    c1.061,2.134,3.011,3.693,5.326,4.257c0.633,0.154,1.275,0.23,1.913,0.23c1.7,0,3.376-0.537,4.774-1.56l17.759-12.995    l15.018,24.474L215.7,233.673c-0.001,0.005-0.002,0.011-0.003,0.017l-6.089,45.33l-16.071,119.625l-4.373,32.536    c-0.001,0.008,0,0.016-0.001,0.024l-3.739,27.838c-0.402,2.995,0.9,5.966,3.377,7.7l62.564,43.798    c1.392,0.973,3.014,1.461,4.636,1.461c1.622,0,3.244-0.487,4.636-1.461l62.566-43.798c2.477-1.733,3.779-4.704,3.377-7.7    l-31.243-232.546l-4.719-35.134c-0.001-0.004-0.002-0.009-0.002-0.013l-5.103-37.981l15.018-24.474l17.759,12.995    c1.398,1.023,3.074,1.56,4.774,1.56c0.639,0,1.281-0.075,1.913-0.23c2.315-0.564,4.265-2.122,5.326-4.257l46.924-94.433    C378.749,41.467,378.181,37.781,375.807,35.32z M208.997,110.656c-0.058,0.043-0.111,0.092-0.168,0.136l-16.922,12.382    L151.79,42.439l22.146-22.968l69.477,66.011L208.997,110.656z M309.899,456.316l-53.898,37.73l-53.897-37.73l2.624-19.531    l93.517-67.215L309.899,456.316z M289.611,305.302l-23.248,16.712c-3.625,2.606-4.452,7.657-1.845,11.283    c2.605,3.624,7.657,4.45,11.283,1.845l16.248-11.68l3.358,24.981l0.399,2.97l-88.116,63.334l0.921-6.852l3.639-27.076    l42.503-30.55c3.626-2.605,4.453-7.657,1.846-11.282c-2.606-3.627-7.659-4.453-11.282-1.846l-30.108,21.64l8.534-63.518    l31.01-22.288c3.625-2.605,4.453-7.657,1.846-11.282c-2.606-3.627-7.661-4.453-11.282-1.846l-18.613,13.378l4.558-33.93    l45.126-32.433l3.755,27.951l-13.512,9.713c-3.625,2.606-4.452,7.657-1.845,11.283c2.605,3.624,7.657,4.45,11.283,1.845    l6.515-4.682L289.611,305.302z M234.22,217.255l7.735-57.58h28.091l3.9,29.029L234.22,217.255z M272.593,143.508H239.41    l-14.847-24.194l31.438-23.005l31.438,23.005L272.593,143.508z M320.094,123.174l-16.922-12.383    c-0.057-0.044-0.109-0.093-0.168-0.136l-34.416-25.174l25.617-24.34c3.237-3.076,3.367-8.193,0.292-11.43    c-3.076-3.238-8.193-3.365-11.43-0.292L256,75.138l-62.067-58.97h124.135l-17.323,16.459c-3.237,3.076-3.367,8.193-0.292,11.43    c3.076,3.237,8.194,3.365,11.43,0.292l26.183-24.877l22.146,22.968L320.094,123.174z" fill="#ffffff" data-original="#000000" style="" class=""/>
	</g>
</g>
<g xmlns="http://www.w3.org/2000/svg">
</g>
<g xmlns="http://www.w3.org/2000/svg">
</g>
<g xmlns="http://www.w3.org/2000/svg">
</g>
<g xmlns="http://www.w3.org/2000/svg">
</g>
<g xmlns="http://www.w3.org/2000/svg">
</g>
<g xmlns="http://www.w3.org/2000/svg">
</g>
<g xmlns="http://www.w3.org/2000/svg">
</g>
<g xmlns="http://www.w3.org/2000/svg">
</g>
<g xmlns="http://www.w3.org/2000/svg">
</g>
<g xmlns="http://www.w3.org/2000/svg">
</g>
<g xmlns="http://www.w3.org/2000/svg">
</g>
<g xmlns="http://www.w3.org/2000/svg">
</g>
<g xmlns="http://www.w3.org/2000/svg">
</g>
<g xmlns="http://www.w3.org/2000/svg">
</g>
<g xmlns="http://www.w3.org/2000/svg">
</g>
</g></svg>
